<svg xmlns="http://www.w3.org/2000/svg" viewBox="0 0 96 96">
  <defs>
    <linearGradient id="az1" x1="0.5" y1="0" x2="0.5" y2="1">
      <stop offset="0" stop-color="#114A8B"/>
      <stop offset="1" stop-color="#0669BC"/>
    </linearGradient>
    <linearGradient id="az2" x1="0" y1="0" x2="1" y2="1">
      <stop offset="0" stop-color="#3CCBF4"/>
      <stop offset="1" stop-color="#2892DF"/>
    </linearGradient>
  </defs>
  <path d="M33.338 6.544h26.038L33.1 89.456a4.133 4.133 0 01-3.917 2.8H8.5a4.133 4.133 0 01-3.9-5.538L29.42 9.344a4.133 4.133 0 013.918-2.8z" fill="url(#az1)"/>
  <path d="M71.175 60.498H37.544a1.9 1.9 0 00-1.294 3.293l21.628 20.166a4.15 4.15 0 002.83 1.299h18.87z" fill="#0078D4"/>
  <path d="M33.338 6.544a4.09 4.09 0 00-3.927 2.85L4.64 86.67a4.128 4.128 0 003.86 5.586h20.1a4.43 4.43 0 003.39-2.87l4.857-14.318 17.37 16.196a4.217 4.217 0 002.666.992h23.22l-10.19-29.118-29.65.007L51.7 6.544z" fill="url(#az2)"/>
  <path d="M66.581 9.344a4.128 4.128 0 00-3.912-2.8H33.648a4.129 4.129 0 013.912 2.8l24.819 77.374a4.133 4.133 0 01-3.912 5.538h29.021a4.133 4.133 0 003.912-5.538z" fill="#0078D4"/>
</svg>
